<svg width="20" height="20" viewBox="0 0 20 20" fill="none" xmlns="http://www.w3.org/2000/svg">
<g id="search (4) 1" clip-path="url(#clip0_96_64)">
<g id="Group">
<g id="Group_2">
<path id="Vector" d="M19.6872 18.5666L15.6068 14.4929C16.9059 12.9579 17.6932 10.9764 17.6932 8.81207C17.6932 3.95285 13.7404 0 8.88113 0C4.02191 0 0.0673828 3.95367 0.0673828 8.81289C0.0673828 13.6721 4.02106 17.625 8.87945 17.625C10.9709 17.625 12.8927 16.8889 14.405 15.667L18.4997 19.755C18.6633 19.9178 18.8782 20 19.093 20C19.3079 20 19.5227 19.9178 19.6872 19.7533C20.0145 19.426 20.0137 18.8947 19.6872 18.5666ZM8.87945 15.9464C4.94594 15.9464 1.7459 12.7464 1.7459 8.81289C1.7459 4.87938 4.9459 1.67934 8.87945 1.67934C12.813 1.67934 16.013 4.87938 16.013 8.81289C16.013 12.7464 12.813 15.9464 8.87945 15.9464Z" fill="black"/>
</g>
</g>
</g>
<defs>
<clipPath id="clip0_96_64">
<rect width="20" height="20" fill="white"/>
</clipPath>
</defs>
</svg>
